<?xml version="1.0" encoding="UTF-8"?>
<!DOCTYPE svg PUBLIC "-//W3C//DTD SVG 1.1//EN" "http://www.w3.org/Graphics/SVG/1.1/DTD/svg11.dtd">
<svg xmlns="http://www.w3.org/2000/svg" version="1.1" width="456px" height="113px" style="shape-rendering:geometricPrecision; text-rendering:geometricPrecision; image-rendering:optimizeQuality; fill-rule:evenodd; clip-rule:evenodd" xmlns:xlink="http://www.w3.org/1999/xlink">
<g><path style="opacity:1" fill="#fdfdfd" d="M -0.5,-0.5 C 151.5,-0.5 303.5,-0.5 455.5,-0.5C 455.5,37.1667 455.5,74.8333 455.5,112.5C 303.5,112.5 151.5,112.5 -0.5,112.5C -0.5,74.8333 -0.5,37.1667 -0.5,-0.5 Z"/></g>
<g><path style="opacity:1" fill="#29a450" d="M 36.5,22.5 C 34.5,22.5 32.5,22.5 30.5,22.5C 25.4478,20.3202 20.1144,18.8202 14.5,18C 19.7218,12.2733 25.0552,12.1066 30.5,17.5C 34.4981,13.0004 39.4981,10.3337 45.5,9.5C 45.2028,15.777 42.2028,20.1103 36.5,22.5 Z"/></g>
<g><path style="opacity:1" fill="#1fa14b" d="M 44.5,21.5 C 50.1568,20.8338 55.9902,20.5005 62,20.5C 93.1251,18.6344 105.125,32.9678 98,63.5C 92.2987,81.2839 80.1321,91.4506 61.5,94C 46.5,94.6667 31.5,94.6667 16.5,94C 11.8451,91.1034 10.3451,86.9367 12,81.5C 13.2738,74.9362 15.1071,68.6029 17.5,62.5C 25.8823,68.9288 35.2156,70.9288 45.5,68.5C 44.8189,74.2554 43.8189,79.922 42.5,85.5C 49.9701,87.1765 55.8034,84.8432 60,78.5C 68.1014,62.8551 70.9347,46.5218 68.5,29.5C 64.8889,28.7382 61.2222,28.2382 57.5,28C 53.7024,24.7678 49.369,22.6012 44.5,21.5 Z"/></g>
<g><path style="opacity:1" fill="#f18137" d="M 30.5,22.5 C 32.5,22.5 34.5,22.5 36.5,22.5C 48.7921,22.5577 57.2921,28.2244 62,39.5C 62.8045,42.6965 62.6378,45.6965 61.5,48.5C 60.596,47.791 60.2627,46.791 60.5,45.5C 57.9592,45.8499 55.6258,45.8499 53.5,45.5C 53.1665,37.6811 49.1665,32.8478 41.5,31C 31.9488,28.9459 24.9488,32.1126 20.5,40.5C 17.8707,41.7143 15.204,41.7143 12.5,40.5C 15.4972,31.5028 21.4972,25.5028 30.5,22.5 Z"/></g>
<g><path style="opacity:1" fill="#f0f1ec" d="M 53.5,45.5 C 53.6716,46.4916 53.3382,47.1583 52.5,47.5C 49.7858,50.9339 46.7858,51.2673 43.5,48.5C 44.4704,44.7807 45.3038,41.1141 46,37.5C 40,49.5 34,49.5 28,37.5C 29.0059,41.3584 29.8392,45.3584 30.5,49.5C 26.5747,51.4794 23.7414,50.4794 22,46.5C 21.6012,46.7284 21.4346,47.0618 21.5,47.5C 20.5318,45.3926 20.1984,43.0593 20.5,40.5C 24.9488,32.1126 31.9488,28.9459 41.5,31C 49.1665,32.8478 53.1665,37.6811 53.5,45.5 Z"/></g>
<g><path style="opacity:1" fill="#0c0c0c" d="M 117.5,37.5 C 120.167,37.5 122.833,37.5 125.5,37.5C 125.5,50.8333 125.5,64.1667 125.5,77.5C 122.833,77.5 120.167,77.5 117.5,77.5C 117.5,64.1667 117.5,50.8333 117.5,37.5 Z"/></g>
<g><path style="opacity:1" fill="#040404" d="M 160.5,61.5 C 160.783,62.2891 161.283,62.9558 162,63.5C 162.5,54.8397 162.666,46.1731 162.5,37.5C 164.833,37.5 167.167,37.5 169.5,37.5C 169.5,50.8333 169.5,64.1667 169.5,77.5C 166.552,77.7771 163.719,77.4438 161,76.5C 155.607,67.9468 150.44,59.2801 145.5,50.5C 145.44,49.9569 145.107,49.6236 144.5,49.5C 143.502,58.8096 143.168,68.1429 143.5,77.5C 141.167,77.5 138.833,77.5 136.5,77.5C 136.5,64.1667 136.5,50.8333 136.5,37.5C 139.518,37.3354 142.518,37.502 145.5,38C 150.635,45.7768 155.635,53.6102 160.5,61.5 Z"/></g>
<g><path style="opacity:1" fill="#bbbbbb" d="M 162.5,37.5 C 162.666,46.1731 162.5,54.8397 162,63.5C 161.283,62.9558 160.783,62.2891 160.5,61.5C 161.167,53.5 161.833,45.5 162.5,37.5 Z"/></g>
<g><path style="opacity:1" fill="#0a0a0a" d="M 176.5,37.5 C 179.448,37.2229 182.281,37.5562 185,38.5C 187.667,48.0019 190.834,57.3352 194.5,66.5C 197.635,57.0962 200.968,47.7629 204.5,38.5C 207.106,37.3483 209.773,37.1816 212.5,38C 207.666,51.0017 203.333,64.1684 199.5,77.5C 196.102,77.8204 192.768,77.487 189.5,76.5C 184.961,63.5504 180.628,50.5504 176.5,37.5 Z"/></g>
<g><path style="opacity:1" fill="#070707" d="M 245.5,43.5 C 239.167,43.5 232.833,43.5 226.5,43.5C 226.5,46.8333 226.5,50.1667 226.5,53.5C 231.833,53.5 237.167,53.5 242.5,53.5C 242.5,55.5 242.5,57.5 242.5,59.5C 237.167,59.5 231.833,59.5 226.5,59.5C 226.5,63.1667 226.5,66.8333 226.5,70.5C 232.645,71.4902 238.978,71.8235 245.5,71.5C 245.5,73.5 245.5,75.5 245.5,77.5C 236.5,77.5 227.5,77.5 218.5,77.5C 218.5,64.1667 218.5,50.8333 218.5,37.5C 227.5,37.5 236.5,37.5 245.5,37.5C 245.5,39.5 245.5,41.5 245.5,43.5 Z"/></g>
<g><path style="opacity:1" fill="#0b0b0b" d="M 262.5,50.5 C 262.44,49.9569 262.107,49.6236 261.5,49.5C 260.502,58.8096 260.168,68.1429 260.5,77.5C 258.167,77.5 255.833,77.5 253.5,77.5C 253.5,64.1667 253.5,50.8333 253.5,37.5C 256.518,37.3354 259.518,37.502 262.5,38C 268.374,46.2446 273.874,54.7446 279,63.5C 279.5,54.8397 279.666,46.1731 279.5,37.5C 282.167,37.5 284.833,37.5 287.5,37.5C 287.5,50.8333 287.5,64.1667 287.5,77.5C 284.428,77.8174 281.428,77.4841 278.5,76.5C 273.156,67.8054 267.822,59.1387 262.5,50.5 Z"/></g>
<g><path style="opacity:1" fill="#010101" d="M 324.5,43.5 C 320.5,43.5 316.5,43.5 312.5,43.5C 312.5,54.8333 312.5,66.1667 312.5,77.5C 310.167,77.5 307.833,77.5 305.5,77.5C 305.5,66.1667 305.5,54.8333 305.5,43.5C 301.5,43.5 297.5,43.5 293.5,43.5C 293.5,41.5 293.5,39.5 293.5,37.5C 303.833,37.5 314.167,37.5 324.5,37.5C 324.5,39.5 324.5,41.5 324.5,43.5 Z"/></g>
<g><path style="opacity:1" fill="#0d0d0d" d="M 341.5,36.5 C 353.227,34.9369 361.061,39.6035 365,50.5C 367.42,61.8623 363.92,70.6957 354.5,77C 342.059,80.696 333.559,76.5293 329,64.5C 325.386,51.4107 329.553,42.0774 341.5,36.5 Z"/></g>
<g><path style="opacity:1" fill="#070707" d="M 389.5,61.5 C 387.052,60.5269 384.385,60.1936 381.5,60.5C 381.5,66.1667 381.5,71.8333 381.5,77.5C 379.167,77.5 376.833,77.5 374.5,77.5C 374.5,64.1667 374.5,50.8333 374.5,37.5C 381.175,37.3337 387.842,37.5004 394.5,38C 401.526,39.8779 404.026,44.3779 402,51.5C 400.5,54.3333 398.333,56.5 395.5,58C 400.513,63.5255 403.513,70.0255 404.5,77.5C 401.753,77.8134 399.086,77.48 396.5,76.5C 394.901,72.2041 393.401,67.8708 392,63.5C 391.292,62.6195 390.458,61.9528 389.5,61.5 Z"/></g>
<g><path style="opacity:1" fill="#0c0c0c" d="M 405.5,38.5 C 408.355,37.1968 411.355,37.1968 414.5,38.5C 417.015,43.543 420.015,48.2096 423.5,52.5C 426.625,47.7505 429.625,42.9172 432.5,38C 435.227,37.1816 437.894,37.3483 440.5,38.5C 436.08,45.6709 431.914,53.0042 428,60.5C 427.501,66.1569 427.334,71.8236 427.5,77.5C 424.833,77.5 422.167,77.5 419.5,77.5C 419.666,71.8236 419.499,66.1569 419,60.5C 414.726,52.9357 410.226,45.6024 405.5,38.5 Z"/></g>
<g><path style="opacity:1" fill="#fafafa" d="M 382.5,43.5 C 385.85,43.335 389.183,43.5017 392.5,44C 394.478,46.4973 394.978,49.3307 394,52.5C 393.329,53.2524 392.496,53.5858 391.5,53.5C 388.5,53.5 385.5,53.5 382.5,53.5C 382.5,50.1667 382.5,46.8333 382.5,43.5 Z"/></g>
<g><path style="opacity:1" fill="#26a24e" d="M 43.5,48.5 C 43.5,48.8333 43.5,49.1667 43.5,49.5C 42.5269,51.9479 42.1936,54.6146 42.5,57.5C 42.5,57.8333 42.5,58.1667 42.5,58.5C 38.6286,58.815 34.9619,58.4816 31.5,57.5C 31.7947,55.2646 31.4614,53.2646 30.5,51.5C 30.5,50.8333 30.5,50.1667 30.5,49.5C 29.8392,45.3584 29.0059,41.3584 28,37.5C 34,49.5 40,49.5 46,37.5C 45.3038,41.1141 44.4704,44.7807 43.5,48.5 Z"/></g>
<g><path style="opacity:1" fill="#189f46" d="M 35.5,38.5 C 39.35,38.7007 40.35,40.5341 38.5,44C 34.5369,44.1177 33.5369,42.2843 35.5,38.5 Z"/></g>
<g><path style="opacity:1" fill="#f6f6f6" d="M 342.5,43.5 C 354.801,43.3123 359.635,49.3123 357,61.5C 354.214,70.9744 348.381,73.4744 339.5,69C 338.283,67.3523 337.45,65.519 337,63.5C 336.333,58.8333 336.333,54.1667 337,49.5C 338.36,46.9774 340.193,44.9774 342.5,43.5 Z"/></g>
<g><path style="opacity:1" fill="#7a7a7a" d="M 324.5,43.5 C 321.038,44.4816 317.371,44.815 313.5,44.5C 313.828,55.6794 313.495,66.6794 312.5,77.5C 312.5,66.1667 312.5,54.8333 312.5,43.5C 316.5,43.5 320.5,43.5 324.5,43.5 Z"/></g>
<g><path style="opacity:1" fill="#9c9c9c" d="M 293.5,43.5 C 297.5,43.5 301.5,43.5 305.5,43.5C 305.5,54.8333 305.5,66.1667 305.5,77.5C 304.505,66.6794 304.172,55.6794 304.5,44.5C 300.629,44.815 296.962,44.4816 293.5,43.5 Z"/></g>
<g><path style="opacity:1" fill="#1f1d1e" d="M 25.5,45.5 C 26.5,45.5 27.5,45.5 28.5,45.5C 28.4261,49.5412 27.0928,50.2079 24.5,47.5C 24.8627,46.8165 25.1961,46.1499 25.5,45.5 Z"/></g>
<g><path style="opacity:1" fill="#1d1b1c" d="M 45.5,45.5 C 48.1662,45.0658 49.3329,46.0658 49,48.5C 46.3422,49.694 45.1756,48.694 45.5,45.5 Z"/></g>
<g><path style="opacity:1" fill="#201e20" d="M 52.5,47.5 C 51.3064,51.3633 48.973,54.3633 45.5,56.5C 44.3882,54.4006 43.7215,52.0673 43.5,49.5C 43.5,49.1667 43.5,48.8333 43.5,48.5C 46.7858,51.2673 49.7858,50.9339 52.5,47.5 Z"/></g>
<g><path style="opacity:1" fill="#252325" d="M 30.5,49.5 C 30.5,50.1667 30.5,50.8333 30.5,51.5C 30.9227,53.7812 30.256,55.4479 28.5,56.5C 25.027,54.3633 22.6936,51.3633 21.5,47.5C 21.4346,47.0618 21.6012,46.7284 22,46.5C 23.7414,50.4794 26.5747,51.4794 30.5,49.5 Z"/></g>
<g><path style="opacity:1" fill="#888888" d="M 145.5,50.5 C 144.833,59.5 144.167,68.5 143.5,77.5C 143.168,68.1429 143.502,58.8096 144.5,49.5C 145.107,49.6236 145.44,49.9569 145.5,50.5 Z"/></g>
<g><path style="opacity:1" fill="#acacac" d="M 245.5,43.5 C 239.69,44.4896 233.69,44.8229 227.5,44.5C 227.5,47.1667 227.5,49.8333 227.5,52.5C 232.833,52.5 238.167,52.5 243.5,52.5C 243.5,55.1667 243.5,57.8333 243.5,60.5C 238.167,60.5 232.833,60.5 227.5,60.5C 227.5,63.8333 227.5,67.1667 227.5,70.5C 227.167,70.5 226.833,70.5 226.5,70.5C 226.5,66.8333 226.5,63.1667 226.5,59.5C 231.833,59.5 237.167,59.5 242.5,59.5C 242.5,57.5 242.5,55.5 242.5,53.5C 237.167,53.5 231.833,53.5 226.5,53.5C 226.5,50.1667 226.5,46.8333 226.5,43.5C 232.833,43.5 239.167,43.5 245.5,43.5 Z"/></g>
<g><path style="opacity:1" fill="#6b6b6b" d="M 262.5,50.5 C 261.833,59.5 261.167,68.5 260.5,77.5C 260.168,68.1429 260.502,58.8096 261.5,49.5C 262.107,49.6236 262.44,49.9569 262.5,50.5 Z"/></g>
<g><path style="opacity:1" fill="#b6b6b6" d="M 382.5,43.5 C 382.5,46.8333 382.5,50.1667 382.5,53.5C 385.5,53.5 388.5,53.5 391.5,53.5C 388.375,54.4794 385.042,54.8128 381.5,54.5C 381.185,50.6286 381.518,46.9619 382.5,43.5 Z"/></g>
<g><path style="opacity:1" fill="#faa448" d="M 12.5,40.5 C 15.204,41.7143 17.8707,41.7143 20.5,40.5C 20.1984,43.0593 20.5318,45.3926 21.5,47.5C 22.6936,51.3633 25.027,54.3633 28.5,56.5C 28.5,56.8333 28.5,57.1667 28.5,57.5C 25.2763,57.2865 21.943,57.6199 18.5,58.5C 15.1013,56.053 12.9346,52.7197 12,48.5C 11.1993,45.633 11.3659,42.9664 12.5,40.5 Z"/></g>
<g><path style="opacity:1" fill="#e4e3dc" d="M 30.5,51.5 C 31.4614,53.2646 31.7947,55.2646 31.5,57.5C 30.5,57.5 29.5,57.5 28.5,57.5C 28.5,57.1667 28.5,56.8333 28.5,56.5C 30.256,55.4479 30.9227,53.7812 30.5,51.5 Z"/></g>
<g><path style="opacity:1" fill="#c3d0c4" d="M 43.5,49.5 C 43.7215,52.0673 44.3882,54.4006 45.5,56.5C 44.791,57.404 43.791,57.7373 42.5,57.5C 42.1936,54.6146 42.5269,51.9479 43.5,49.5 Z"/></g>
<g><path style="opacity:1" fill="#fca845" d="M 53.5,45.5 C 55.6258,45.8499 57.9592,45.8499 60.5,45.5C 60.2627,46.791 60.596,47.791 61.5,48.5C 59.4905,57.1761 54.1572,62.5095 45.5,64.5C 41.2621,62.8401 36.9288,61.3401 32.5,60C 35.38,59.3159 38.2134,59.4826 41,60.5C 42.0299,60.1639 42.5299,59.4972 42.5,58.5C 42.5,58.1667 42.5,57.8333 42.5,57.5C 43.791,57.7373 44.791,57.404 45.5,56.5C 48.973,54.3633 51.3064,51.3633 52.5,47.5C 53.3382,47.1583 53.6716,46.4916 53.5,45.5 Z"/></g>
<g><path style="opacity:1" fill="#feb84f" d="M 28.5,57.5 C 29.5,57.5 30.5,57.5 31.5,57.5C 34.9619,58.4816 38.6286,58.815 42.5,58.5C 42.5299,59.4972 42.0299,60.1639 41,60.5C 38.2134,59.4826 35.38,59.3159 32.5,60C 36.9288,61.3401 41.2621,62.8401 45.5,64.5C 37.2668,67.6192 29.2668,66.7858 21.5,62C 20.2899,60.9609 19.2899,59.7942 18.5,58.5C 21.943,57.6199 25.2763,57.2865 28.5,57.5 Z"/></g>
<g><path style="opacity:1" fill="#909090" d="M 389.5,61.5 C 387.167,61.5 384.833,61.5 382.5,61.5C 382.821,67.0262 382.488,72.3595 381.5,77.5C 381.5,71.8333 381.5,66.1667 381.5,60.5C 384.385,60.1936 387.052,60.5269 389.5,61.5 Z"/></g>
<g><path style="opacity:1" fill="#6c6c6c" d="M 226.5,70.5 C 226.833,70.5 227.167,70.5 227.5,70.5C 233.833,70.5 240.167,70.5 246.5,70.5C 246.802,73.0593 246.468,75.3926 245.5,77.5C 245.5,75.5 245.5,73.5 245.5,71.5C 238.978,71.8235 232.645,71.4902 226.5,70.5 Z"/></g>
</svg>
